<?xml version="1.0" encoding="iso-8859-1"?>
<!-- Generator: Adobe Illustrator 19.0.0, SVG Export Plug-In . SVG Version: 6.00 Build 0)  -->
<svg version="1.1" id="Layer_1" xmlns="http://www.w3.org/2000/svg" xmlns:xlink="http://www.w3.org/1999/xlink" x="0px" y="0px"
	 viewBox="0 0 511.975 511.975" style="enable-background:new 0 0 511.975 511.975;" xml:space="preserve">
<g>
	<path style="fill:#E2A67D;" d="M255.991,51.309c-125.174,0-226.653,101.479-226.653,226.661
		c0,125.181,101.479,226.645,226.653,226.645c125.182,0,226.661-101.464,226.661-226.645
		C482.652,152.789,381.173,51.309,255.991,51.309z M253.655,419.931c-75.285,0-136.321-77.043-136.321-152.336
		s61.036-136.321,136.321-136.321c75.301,0,136.329,61.028,136.329,136.321S328.956,419.931,253.655,419.931z"/>
	<path style="fill:#E2A67D;" d="M255.991,148.554c60.216,0,110.588,40.545,124.213,95.104c2.375-9.483,3.781-19.342,3.781-29.529
		c0-68.824-57.31-124.635-127.994-124.635s-127.994,55.811-127.994,124.635c0,10.188,1.39,20.046,3.765,29.529
		C145.403,189.099,195.775,148.554,255.991,148.554z"/>
</g>
<path style="fill:#7F4545;" d="M255.991,8.015c-125.174,0-226.653,101.479-226.653,226.66S130.817,461.32,255.991,461.32
	c125.182,0,226.661-101.464,226.661-226.645C482.652,109.494,381.173,8.015,255.991,8.015z M253.655,376.636
	c-75.285,0-136.321-77.043-136.321-152.335c0-75.294,61.036-136.322,136.321-136.322c75.301,0,136.329,61.028,136.329,136.322
	C389.984,299.593,328.956,376.636,253.655,376.636z"/>
<path d="M255.991,0C126.396,0,21.339,105.057,21.339,234.66v42.67c0,129.587,105.057,234.645,234.652,234.645
	c129.587,0,234.645-105.058,234.645-234.645v-42.67C490.635,105.056,385.578,0,255.991,0z M105.147,83.808
	c4.563-4.547,9.296-8.875,14.195-12.969c0.336,0.469,0.695,0.922,1.117,1.344c4.164,4.156,10.913,4.156,15.085,0
	c3.875-3.875,4.141-9.999,0.805-14.187c11.484-7.781,23.71-14.453,36.615-19.905c16.476-6.969,33.6-11.781,51.177-14.405
	c0.344,2.124,1.328,4.187,2.977,5.827c4.164,4.172,10.921,4.172,15.085,0c2.18-2.172,3.203-5.062,3.102-7.921
	c3.547-0.172,7.109-0.25,10.687-0.25c3.578,0,7.141,0.078,10.687,0.25c-0.101,2.859,0.923,5.749,3.102,7.921
	c4.164,4.172,10.93,4.172,15.086,0c1.655-1.641,2.624-3.703,2.968-5.827c17.593,2.624,34.717,7.437,51.186,14.405
	c12.905,5.452,25.123,12.124,36.623,19.905c-3.344,4.188-3.063,10.312,0.813,14.187c4.156,4.156,10.905,4.156,15.077,0
	c0.422-0.422,0.781-0.875,1.109-1.344c4.906,4.094,9.625,8.422,14.187,12.969c19.594,19.608,34.999,42.419,45.732,67.824
	c9.828,23.233,15.358,47.732,16.515,73.012c-2.656,0.063-5.28,1.094-7.312,3.109c-4.157,4.172-4.157,10.922,0,15.077
	c2.016,2,4.624,3.031,7.249,3.125c-1.28,24.812-6.796,48.888-16.452,71.73c-10.733,25.39-26.139,48.217-45.732,67.825
	c-4.734,4.734-9.671,9.218-14.78,13.468c-0.172-0.188-0.344-0.39-0.516-0.563c-4.172-4.172-10.921-4.172-15.077,0
	c-3.625,3.609-4.094,9.188-1.438,13.313c-11.297,7.624-23.327,14.14-35.998,19.499c-16.562,6.999-33.779,11.827-51.436,14.437
	c-0.5-1.688-1.391-3.266-2.718-4.594c-4.156-4.156-10.922-4.156-15.086,0c-1.852,1.859-2.875,4.219-3.078,6.656
	c-3.554,0.156-7.124,0.25-10.71,0.25s-7.156-0.094-10.71-0.25c-0.203-2.438-1.227-4.797-3.078-6.656
	c-4.164-4.156-10.921-4.156-15.085,0c-1.328,1.328-2.227,2.906-2.711,4.594c-17.671-2.609-34.881-7.438-51.443-14.437
	c-12.671-5.359-24.702-11.875-36.006-19.499c2.672-4.125,2.203-9.703-1.414-13.313c-4.172-4.172-10.921-4.172-15.085,0
	c-0.188,0.173-0.352,0.375-0.516,0.563c-5.117-4.25-10.055-8.733-14.796-13.468c-19.593-19.608-34.982-42.436-45.724-67.825
	c-9.656-22.843-15.179-46.919-16.46-71.73c2.632-0.094,5.242-1.109,7.25-3.125c4.164-4.155,4.164-10.905,0-15.077
	c-2.023-2.016-4.656-3.047-7.305-3.109c1.156-25.279,6.695-49.778,16.515-73.012C70.164,126.227,85.554,103.417,105.147,83.808z
	 M406.827,428.166c-19.593,19.593-42.404,34.982-67.809,45.717c-26.28,11.124-54.216,16.764-83.027,16.764
	s-56.739-5.64-83.027-16.764c-25.405-10.734-48.216-26.124-67.817-45.717c-17.64-17.64-31.85-37.904-42.35-60.294
	C105.131,429.166,175.87,469.32,255.991,469.32s150.867-40.154,193.193-101.433C438.684,390.261,424.483,410.526,406.827,428.166z"
	/>
<path d="M178.205,72.183c4.164-4.172,4.164-10.922,0-15.093c-4.164-4.156-10.921-4.156-15.085,0c-4.164,4.171-4.164,10.921,0,15.093
	C167.284,76.34,174.042,76.34,178.205,72.183z"/>
<path d="M220.868,72.183c4.164-4.172,4.164-10.922,0-15.093c-4.164-4.156-10.914-4.156-15.085,0c-4.164,4.171-4.164,10.921,0,15.093
	C209.954,76.34,216.704,76.34,220.868,72.183z"/>
<path d="M263.537,72.183c4.164-4.172,4.164-10.922,0-15.093c-4.171-4.156-10.921-4.156-15.085,0c-4.164,4.171-4.164,10.921,0,15.093
	C252.616,76.34,259.366,76.34,263.537,72.183z"/>
<path d="M306.208,72.183c4.155-4.172,4.155-10.922,0-15.093c-4.172-4.156-10.938-4.156-15.094,0c-4.156,4.171-4.156,10.921,0,15.093
	C295.27,76.34,302.036,76.34,306.208,72.183z"/>
<path d="M348.861,72.183c4.156-4.172,4.156-10.922,0-15.093c-4.156-4.156-10.905-4.156-15.093,0c-4.156,4.171-4.156,10.921,0,15.093
	C337.956,76.34,344.705,76.34,348.861,72.183z"/>
<path d="M114.209,114.838c4.164-4.156,4.164-10.905,0-15.077s-10.921-4.172-15.085,0s-4.164,10.921,0,15.077
	C103.288,119.009,110.045,119.009,114.209,114.838z"/>
<path d="M156.871,114.838c4.164-4.156,4.164-10.905,0-15.077s-10.921-4.172-15.085,0s-4.164,10.921,0,15.077
	C145.949,119.009,152.707,119.009,156.871,114.838z"/>
<path d="M355.111,114.838c4.156,4.172,10.922,4.172,15.093,0c4.156-4.156,4.156-10.905,0-15.077c-4.171-4.172-10.937-4.172-15.093,0
	S350.955,110.681,355.111,114.838z"/>
<path d="M412.858,114.838c4.156-4.156,4.156-10.905,0-15.077s-10.921-4.172-15.093,0c-4.156,4.172-4.156,10.921,0,15.077
	C401.937,119.009,408.702,119.009,412.858,114.838z"/>
<path d="M92.874,157.508c4.164-4.172,4.164-10.922,0-15.077c-4.164-4.172-10.914-4.172-15.085,0c-4.164,4.155-4.164,10.905,0,15.077
	C81.96,161.678,88.71,161.678,92.874,157.508z"/>
<path d="M126.357,160.492c-4.585,7.999-8.445,16.468-11.507,25.311c-0.203-0.25-0.414-0.484-0.641-0.719
	c-4.164-4.155-10.921-4.155-15.085,0c-4.164,4.172-4.164,10.922,0,15.094c2.968,2.969,7.25,3.812,10.976,2.531
	c-2.242,10.312-3.438,20.982-3.438,31.951c0,11.452,1.297,22.607,3.734,33.326c-3.789-1.438-8.226-0.625-11.272,2.438
	c-4.164,4.156-4.164,10.905,0,15.077s10.921,4.172,15.085,0c0.352-0.359,0.656-0.734,0.953-1.109
	c3.164,8.969,7.156,17.53,11.89,25.608c-2.406,0.219-4.758,1.234-6.593,3.078c-4.164,4.171-4.164,10.921,0,15.093
	c4.164,4.156,10.913,4.156,15.085,0c0.797-0.813,1.445-1.719,1.938-2.656c11.929,15.53,26.834,28.654,43.88,38.498
	c0.172,2.5,1.195,4.922,3.094,6.813c3.625,3.625,9.218,4.094,13.359,1.406c17.882,7.562,37.537,11.749,58.177,11.749
	s40.311-4.188,58.185-11.749c4.125,2.688,9.718,2.219,13.358-1.406c1.891-1.891,2.922-4.313,3.078-6.813
	c17.062-9.844,31.968-22.968,43.889-38.514c0.484,0.953,1.141,1.859,1.953,2.672c4.156,4.156,10.905,4.156,15.077,0
	c4.172-4.172,4.172-10.922,0-15.093c-1.844-1.844-4.203-2.859-6.608-3.078c4.749-8.078,8.733-16.64,11.905-25.608
	c0.281,0.375,0.594,0.75,0.938,1.109c4.172,4.172,10.937,4.172,15.093,0s4.156-10.921,0-15.077
	c-3.047-3.063-7.484-3.875-11.281-2.438c2.438-10.719,3.75-21.874,3.75-33.326c0-10.969-1.203-21.655-3.438-31.951
	c3.719,1.28,8,0.438,10.969-2.531c4.156-4.172,4.156-10.922,0-15.094c-4.156-4.155-10.921-4.155-15.093,0
	c-0.219,0.234-0.438,0.469-0.625,0.719c-3.063-8.843-6.938-17.312-11.516-25.311c2.156-0.344,4.234-1.313,5.906-2.984
	c4.172-4.172,4.172-10.922,0-15.077c-4.172-4.172-10.921-4.172-15.077,0c-0.609,0.593-1.109,1.249-1.531,1.938
	c-12.031-15.844-27.155-29.202-44.482-39.186c-0.391-1.984-1.359-3.875-2.906-5.422c-3.266-3.266-8.124-3.953-12.077-2.109
	c-18.218-7.906-38.326-12.313-59.466-12.313s-41.24,4.406-59.466,12.313c-3.953-1.844-8.804-1.156-12.07,2.109
	c-1.547,1.547-2.516,3.438-2.914,5.422c-17.32,9.983-32.436,23.342-44.482,39.186c-0.422-0.688-0.922-1.345-1.516-1.938
	c-4.172-4.172-10.921-4.172-15.085,0c-4.164,4.155-4.164,10.905,0,15.077C122.122,159.179,124.201,160.148,126.357,160.492z
	 M346.486,325.171c-24.155,24.171-56.31,37.482-90.495,37.482c-34.186,0-66.333-13.312-90.503-37.482
	c-18.991-18.999-31.28-42.904-35.678-68.871c4.398-25.937,16.687-49.857,35.678-68.841c24.17-24.186,56.317-37.498,90.503-37.498
	s66.34,13.313,90.495,37.498c18.999,18.983,31.28,42.904,35.687,68.841C377.766,282.266,365.485,306.172,346.486,325.171z
	 M165.487,144.148c24.17-24.17,56.317-37.481,90.503-37.481s66.34,13.312,90.495,37.481c12.765,12.75,22.499,27.718,28.843,44.045
	c-27.249-36.17-70.559-59.56-119.338-59.56s-92.082,23.39-119.33,59.56C143.004,171.866,152.73,156.898,165.487,144.148z"/>
<path d="M434.201,157.508c4.156-4.172,4.156-10.922,0-15.077c-4.172-4.172-10.938-4.172-15.093,0
	c-4.156,4.155-4.156,10.905,0,15.077C423.263,161.678,430.029,161.678,434.201,157.508z"/>
<path d="M71.547,200.177c4.164-4.172,4.164-10.922,0-15.094c-4.171-4.155-10.921-4.155-15.085,0c-4.172,4.172-4.172,10.922,0,15.094
	C60.626,204.333,67.375,204.333,71.547,200.177z"/>
<path d="M440.435,200.177c4.171,4.155,10.921,4.155,15.077,0c4.172-4.172,4.172-10.922,0-15.094c-4.156-4.155-10.906-4.155-15.077,0
	C436.263,189.256,436.263,196.006,440.435,200.177z"/>
<path d="M92.874,242.831c4.164-4.155,4.164-10.905,0-15.077c-4.164-4.171-10.914-4.171-15.085,0c-4.164,4.172-4.164,10.922,0,15.077
	C81.96,247.003,88.71,247.003,92.874,242.831z"/>
<path d="M434.201,242.831c4.156-4.155,4.156-10.905,0-15.077c-4.172-4.171-10.938-4.171-15.093,0
	c-4.156,4.172-4.156,10.922,0,15.077C423.263,247.003,430.029,247.003,434.201,242.831z"/>
<path d="M56.462,270.424c-4.172,4.156-4.172,10.905,0,15.077c4.164,4.172,10.914,4.172,15.085,0c4.164-4.172,4.164-10.921,0-15.077
	C67.375,266.252,60.626,266.252,56.462,270.424z"/>
<path d="M440.435,270.424c-4.172,4.156-4.172,10.905,0,15.077c4.171,4.172,10.921,4.172,15.077,0c4.172-4.172,4.172-10.921,0-15.077
	C451.356,266.252,444.606,266.252,440.435,270.424z"/>
<path d="M92.874,328.171c4.164-4.172,4.164-10.922,0-15.093c-4.164-4.156-10.914-4.156-15.085,0c-4.164,4.171-4.164,10.921,0,15.093
	C81.96,332.327,88.71,332.327,92.874,328.171z"/>
<path d="M434.201,328.171c4.156-4.172,4.156-10.922,0-15.093c-4.172-4.156-10.938-4.156-15.093,0
	c-4.156,4.171-4.156,10.921,0,15.093C423.263,332.327,430.029,332.327,434.201,328.171z"/>
<path d="M99.124,355.748c-4.164,4.171-4.164,10.921,0,15.077c4.164,4.172,10.921,4.172,15.085,0c4.164-4.156,4.164-10.906,0-15.077
	C110.045,351.576,103.288,351.576,99.124,355.748z"/>
<path d="M141.785,355.748c-4.164,4.171-4.164,10.921,0,15.077c4.164,4.172,10.921,4.172,15.085,0c4.164-4.156,4.164-10.906,0-15.077
	C152.707,351.576,145.949,351.576,141.785,355.748z"/>
<path d="M355.111,355.748c-4.156,4.171-4.156,10.921,0,15.077c4.156,4.172,10.922,4.172,15.093,0c4.156-4.156,4.156-10.906,0-15.077
	C366.033,351.576,359.267,351.576,355.111,355.748z"/>
<path d="M397.765,355.748c-4.156,4.171-4.156,10.921,0,15.077c4.172,4.172,10.937,4.172,15.093,0c4.156-4.156,4.156-10.906,0-15.077
	C408.702,351.576,401.937,351.576,397.765,355.748z"/>
<path d="M163.12,398.417c-4.164,4.156-4.164,10.906,0,15.077c4.164,4.172,10.921,4.172,15.085,0c4.164-4.171,4.164-10.921,0-15.077
	C174.042,394.245,167.284,394.245,163.12,398.417z"/>
<path d="M205.782,398.417c-4.164,4.156-4.164,10.906,0,15.077c4.172,4.172,10.921,4.172,15.085,0c4.164-4.171,4.164-10.921,0-15.077
	C216.704,394.245,209.954,394.245,205.782,398.417z"/>
<path d="M248.452,398.417c-4.164,4.156-4.164,10.906,0,15.077c4.164,4.172,10.914,4.172,15.085,0c4.164-4.171,4.164-10.921,0-15.077
	C259.366,394.245,252.616,394.245,248.452,398.417z"/>
<path d="M291.114,398.417c-4.156,4.156-4.156,10.906,0,15.077c4.156,4.172,10.922,4.172,15.094,0c4.155-4.171,4.155-10.921,0-15.077
	C302.036,394.245,295.27,394.245,291.114,398.417z"/>
<path d="M333.768,398.417c-4.156,4.156-4.156,10.906,0,15.077c4.188,4.172,10.937,4.172,15.093,0c4.156-4.171,4.156-10.921,0-15.077
	C344.705,394.245,337.956,394.245,333.768,398.417z"/>
<g>
</g>
<g>
</g>
<g>
</g>
<g>
</g>
<g>
</g>
<g>
</g>
<g>
</g>
<g>
</g>
<g>
</g>
<g>
</g>
<g>
</g>
<g>
</g>
<g>
</g>
<g>
</g>
<g>
</g>
</svg>
