<?xml version="1.0" encoding="iso-8859-1"?>
<!-- Generator: Adobe Illustrator 19.0.0, SVG Export Plug-In . SVG Version: 6.00 Build 0)  -->
<svg version="1.1" id="Layer_1" xmlns="http://www.w3.org/2000/svg" xmlns:xlink="http://www.w3.org/1999/xlink" x="0px" y="0px"
	 viewBox="0 0 512 512" style="enable-background:new 0 0 512 512;" xml:space="preserve">
<path style="fill:#FFD599;" d="M478.32,163.912c-4.14-34.276-17.588-65.228-41.272-88.912
	c-23.728-23.728-54.636-37.18-88.956-41.316C320.912,12.364,289.548,0,256,0c-33.544,0-64.912,12.364-92.088,33.684
	C129.644,37.82,98.684,51.272,75,75c-23.728,23.684-37.18,54.612-41.32,88.912C12.36,191.092,0,222.456,0,256
	s12.364,64.916,33.68,92.084c4.136,34.304,17.592,65.232,41.32,88.932c23.68,23.708,54.636,37.16,88.912,41.296
	c27.18,21.316,58.588,33.68,92.088,33.68c33.544,0,64.912-12.364,92.088-33.68c34.268-4.136,65.232-17.588,88.956-41.296
	c23.684-23.704,37.132-54.636,41.272-88.932C499.64,320.908,512,289.544,512,256S499.632,191.092,478.32,163.912z M256,349.092
	c-51.412,0-93.088-41.68-93.088-93.088s41.68-93.088,93.088-93.088s93.088,41.68,93.088,93.088
	C349.084,307.416,307.412,349.092,256,349.092z"/>
<g>
	<path style="fill:#F2CA91;" d="M250,163.124c-1.988-0.128-3.984-0.212-6-0.212c-51.412,0-93.088,41.68-93.088,93.088
		s41.68,93.084,93.088,93.084c2.016,0,4.012-0.084,6-0.212c-48.612-3.092-87.088-43.48-87.088-92.872S201.388,166.22,250,163.124z"
		/>
	<path style="fill:#F2CA91;" d="M478.32,163.912c-4.14-34.276-17.588-65.228-41.272-88.912
		c-23.728-23.728-54.636-37.18-88.956-41.316C320.912,12.364,289.548,0,256,0c-2.008,0-4.008,0.052-6,0.14
		c31.284,1.38,60.54,13.5,86.088,33.544C370.408,37.82,401.32,51.272,425.044,75c23.684,23.684,37.132,54.636,41.272,88.912
		C487.64,191.092,500,222.456,500,256s-12.368,64.916-33.68,92.084c-4.14,34.304-17.588,65.232-41.272,88.932
		c-23.728,23.708-54.68,37.16-88.956,41.296c-25.552,20.04-54.804,32.164-86.084,33.544C252,511.944,253.996,512,256,512
		c33.544,0,64.912-12.364,92.088-33.68c34.268-4.136,65.232-17.584,88.956-41.296c23.684-23.704,37.132-54.632,41.272-88.928
		c21.32-27.18,33.68-58.548,33.68-92.088S499.632,191.092,478.32,163.912z"/>
</g>
<path style="fill:#CC584C;" d="M280,94.364c0,13.264-10.74,24-24,24s-24-10.736-24-24s10.736-24,24-24S280,81.1,280,94.364z
	 M256,393.64c-13.264,0-24,10.736-24,24s10.736,24,24,24s24-10.736,24-24S269.26,393.64,256,393.64z M94.36,232.004
	c-13.264,0-24,10.732-24,24s10.736,24,24,24s24-10.74,24-24C118.36,242.74,107.628,232.004,94.36,232.004z M417.632,232.004
	c-13.264,0-24,10.732-24,24s10.736,24,24,24s24-10.74,24-24C441.632,242.74,430.904,232.004,417.632,232.004z M124.748,124.752
	c-9.376,9.376-9.376,24.564,0,33.936c9.376,9.372,24.56,9.376,33.936,0s9.376-24.564,0-33.936
	C149.312,115.376,134.12,115.376,124.748,124.752z M353.312,353.312c-9.376,9.376-9.376,24.584,0,33.968
	c9.376,9.356,24.608,9.356,33.936,0c9.376-9.376,9.376-24.588,0-33.968C377.916,343.956,362.688,343.956,353.312,353.312z
	 M124.748,353.312c-9.376,9.376-9.376,24.584,0,33.968c9.376,9.356,24.56,9.356,33.936,0c9.376-9.376,9.376-24.588,0-33.968
	C149.312,343.956,134.12,343.956,124.748,353.312z M387.252,158.688c9.376-9.376,9.376-24.564,0-33.936
	c-9.328-9.376-24.564-9.376-33.936,0s-9.376,24.564,0,33.936C362.688,168.064,377.916,168.064,387.252,158.688z"/>
<g>
	<path style="fill:#BF5347;" d="M78.36,256.004c0-11.9,8.648-21.736,20-23.64c-1.304-0.22-2.632-0.36-4-0.36
		c-13.264,0-24,10.732-24,24s10.736,24,24,24c1.368,0,2.696-0.14,4-0.36C87.004,277.744,78.36,267.908,78.36,256.004z"/>
	<path style="fill:#BF5347;" d="M256,118.368c1.368,0,2.696-0.14,4-0.36c-11.352-1.908-20-11.744-20-23.644s8.648-21.736,20-23.64
		c-1.304-0.22-2.636-0.36-4-0.36c-13.264,0-24,10.736-24,24C232,107.632,242.736,118.368,256,118.368z"/>
	<path style="fill:#BF5347;" d="M145.72,165.336c-4.748-0.8-9.304-2.984-12.968-6.648c-9.376-9.376-9.376-24.564,0-33.936
		c3.664-3.664,8.224-5.848,12.968-6.648c-7.396-1.248-15.256,0.936-20.968,6.648c-9.376,9.376-9.376,24.564,0,33.936
		C130.46,164.4,138.324,166.584,145.72,165.336z"/>
	<path style="fill:#BF5347;" d="M374.296,165.336c-4.752-0.8-9.32-2.984-12.984-6.648c-9.376-9.376-9.376-24.564,0-33.936
		c3.672-3.668,8.236-5.848,12.984-6.648c-7.4-1.244-15.272,0.94-20.984,6.648c-9.376,9.376-9.376,24.564,0,33.936
		C359.024,164.4,366.9,166.584,374.296,165.336z"/>
	<path style="fill:#BF5347;" d="M361.312,387.28c-9.376-9.376-9.376-24.588,0-33.968c3.672-3.66,8.236-5.836,12.984-6.636
		c-7.4-1.248-15.272,0.932-20.984,6.636c-9.376,9.376-9.376,24.584,0,33.968c5.712,5.696,13.584,7.876,20.984,6.632
		C369.544,393.116,364.976,390.936,361.312,387.28z"/>
	<path style="fill:#BF5347;" d="M401.632,256.004c0-11.9,8.648-21.736,20-23.64c-1.304-0.22-2.632-0.36-4-0.36
		c-13.264,0-24,10.732-24,24s10.736,24,24,24c1.368,0,2.696-0.14,4-0.36C410.28,277.744,401.632,267.908,401.632,256.004z"/>
	<path style="fill:#BF5347;" d="M132.748,387.28c-9.376-9.376-9.376-24.588,0-33.968c3.664-3.656,8.224-5.836,12.968-6.632
		c-7.396-1.244-15.256,0.928-20.968,6.632c-9.376,9.376-9.376,24.584,0,33.968c5.712,5.7,13.572,7.876,20.968,6.632
		C140.972,393.116,136.416,390.936,132.748,387.28z"/>
	<path style="fill:#BF5347;" d="M240,417.64c0-11.9,8.648-21.736,20-23.64c-1.304-0.22-2.636-0.36-4-0.36c-13.264,0-24,10.736-24,24
		s10.736,24,24,24c1.368,0,2.696-0.14,4-0.36C248.648,439.376,240,429.54,240,417.64z"/>
</g>
<g>
</g>
<g>
</g>
<g>
</g>
<g>
</g>
<g>
</g>
<g>
</g>
<g>
</g>
<g>
</g>
<g>
</g>
<g>
</g>
<g>
</g>
<g>
</g>
<g>
</g>
<g>
</g>
<g>
</g>
</svg>
